{"title":"Ek Chalis Ki Last Local (2007) 1CD DVD Rip Xvid AC3 E-Subs [Tikr","uid":5621350,"size":729697188,"categoryP":"video","categoryS":"movies","magnet":"?xt=urn:btih:91b06c0b5ec3a2ae6444c8075d5dc64aee99a2b9&amp;dn=Ek+Chalis+Ki+Last+Local+%282007%29+1CD+DVD+Rip+Xvid+AC3+E-Subs+%5BTikr&amp;tr=udp%3A%2F%2Ftracker.openbittorrent.com%3A80&amp;tr=udp%3A%2F%2Fopen.demonii.com%3A1337&amp;tr=udp%3A%2F%2Ftracker.coppersurfer.tk%3A6969&amp;tr=udp%3A%2F%2Fexodus.desync.com%3A6969","seeders":1,"leechers":1,"uploader":"luvwithromio","files":3,"time":1276288517,"description":"Format                           : AVI\nFormat/Info                      : Audio Video Interleave\nFile size                        : 692 MiB\nDuration                         : 2h 22mn\nOverall bit rate                 : 676 Kbps\n\nVideo\nID                               : 0\nFormat                           : MPEG-4 Visual\nFormat profile                   : Advanced Simple@L5\nFormat settings, BVOP            : Yes\nFormat settings, QPel            : No\nFormat settings, GMC             : No warppoints\nFormat settings, Matrix          : Default (H.263)\nCodec ID                         : XVID\nCodec ID/Hint                    : XviD\nDuration                         : 2h 22mn\nBit rate                         : 538 Kbps\nWidth                            : 640 pixels\nHeight                           : 272 pixels\nDisplay aspect ratio             : 2.35:1\nFrame rate                       : 23.976 fps\nResolution                       : 8 bits\nColorimetry                      : 4:2:0\nScan type                        : Progressive\nBits/(Pixel*Frame)               : 0.129\nStream size                      : 550 MiB (79%)\nWriting library                  : XviD 1.1.2 (UTC 2006-11-01)\n\nAudio\nID                               : 1\nFormat                           : AC-3\nFormat/Info                      : Audio Coding 3\nFormat_Settings_ModeExtension    : CM (complete main)\nCodec ID                         : 2000\nDuration                         : 2h 22mn\nBit rate mode                    : Constant\nBit rate                         : 128 Kbps\nChannel(s)                       : 3 channels\nChannel positions                : Front: L C R\nSampling rate                    : 48.0 KHz\nResolution                       : 16 bits\nStream size                      : 131 MiB (19%)\nAlignment                        : Aligned on interleaves\nInterleave, duration             : 32 ms (0.77 video frame)","torrent":{"xt":"urn:btih:91b06c0b5ec3a2ae6444c8075d5dc64aee99a2b9","amp;dn":"Ek+Chalis+Ki+Last+Local+%282007%29+1CD+DVD+Rip+Xvid+AC3+E-Subs+%5BTikr","amp;tr":["udp%3A%2F%2Ftracker.openbittorrent.com%3A80","udp%3A%2F%2Fopen.demonii.com%3A1337","udp%3A%2F%2Ftracker.coppersurfer.tk%3A6969","udp%3A%2F%2Fexodus.desync.com%3A6969"],"infoHash":"91b06c0b5ec3a2ae6444c8075d5dc64aee99a2b9","infoHashBuffer":{"type":"Buffer","data":[145,176,108,11,94,195,162,174,100,68,200,7,93,93,198,74,238,153,162,185]},"announce":[],"urlList":[]}}